<?xml version="1.0" encoding="utf-8"?>
<!-- Generator: Adobe Illustrator 25.2.1, SVG Export Plug-In . SVG Version: 6.00 Build 0)  -->
<svg version="1.1" id="レイヤー_1" xmlns="http://www.w3.org/2000/svg" xmlns:xlink="http://www.w3.org/1999/xlink" x="0px"
	 y="0px" viewBox="0 0 800 688" style="enable-background:new 0 0 800 688;" xml:space="preserve">
<style type="text/css">
	.st0{fill:#725524;}
	.st1{fill:url(#SVGID_1_);}
	.st2{fill:url(#SVGID_2_);}
	.st3{fill:url(#SVGID_3_);}
	.st4{fill:url(#SVGID_4_);}
	.st5{fill:url(#SVGID_5_);}
	.st6{fill:url(#SVGID_6_);}
	.st7{fill:url(#SVGID_7_);}
	.st8{fill:url(#SVGID_8_);}
	.st9{fill:url(#SVGID_9_);}
	.st10{fill:url(#SVGID_10_);}
	.st11{fill:url(#SVGID_11_);}
	.st12{fill:url(#SVGID_12_);}
	.st13{fill:url(#SVGID_13_);}
	.st14{fill:url(#SVGID_14_);}
	.st15{fill:url(#SVGID_15_);}
	.st16{fill:url(#SVGID_16_);}
	.st17{fill:url(#SVGID_17_);}
	.st18{fill:url(#SVGID_18_);}
	.st19{fill:url(#SVGID_19_);}
	.st20{fill:url(#SVGID_20_);}
	.st21{fill:url(#SVGID_21_);}
	.st22{fill:url(#SVGID_22_);}
	.st23{fill:url(#SVGID_23_);}
	.st24{fill:url(#SVGID_24_);}
	.st25{fill:url(#SVGID_25_);}
	.st26{fill:url(#SVGID_26_);}
	.st27{fill:url(#SVGID_27_);}
	.st28{fill:url(#SVGID_28_);}
	.st29{fill:url(#SVGID_29_);}
	.st30{fill:url(#SVGID_30_);}
	.st31{fill:url(#SVGID_31_);}
	.st32{fill:url(#SVGID_32_);}
	.st33{fill:url(#SVGID_33_);}
	.st34{fill:url(#SVGID_34_);}
	.st35{fill:url(#SVGID_35_);}
	.st36{fill:url(#SVGID_36_);}
	.st37{fill:url(#SVGID_37_);}
	.st38{fill:url(#SVGID_38_);}
	.st39{fill:url(#SVGID_39_);}
	.st40{fill:url(#SVGID_40_);}
	.st41{fill:url(#SVGID_41_);}
	.st42{fill:url(#SVGID_42_);}
	.st43{fill:url(#SVGID_43_);}
	.st44{fill:url(#SVGID_44_);}
	.st45{fill:url(#SVGID_45_);}
	.st46{fill:url(#SVGID_46_);}
	.st47{fill:url(#SVGID_47_);}
	.st48{fill:url(#SVGID_48_);}
	.st49{fill:url(#SVGID_49_);}
	.st50{fill:url(#SVGID_50_);}
	.st51{fill:url(#SVGID_51_);}
	.st52{fill:url(#SVGID_52_);}
	.st53{fill:url(#SVGID_53_);}
	.st54{fill:url(#SVGID_54_);}
	.st55{fill:url(#SVGID_55_);}
	.st56{fill:url(#SVGID_56_);}
	.st57{fill:url(#SVGID_57_);}
</style>
<g>
	<g>
		<path class="st0" d="M334.7,400.46c-3.33,9.09-6.21,14.13-11.43,19.98c10.53,4.32,16.02,6.93,27.63,13.23l-7.47,8.28
			c-10.17-6.48-16.83-9.99-27.72-14.76c-9.63,7.29-20.34,11.43-38.97,15.03c-1.35-3.6-2.7-6.21-4.95-9.63
			c15.3-1.8,24.84-4.5,33.66-9.63c-8.37-3.15-9.99-3.69-24.12-7.47c5.31-6.57,7.38-9.54,10.8-15.03h-10.35
			c-4.41,0-7.2,0.18-9.81,0.54v-10.17c2.61,0.36,4.68,0.45,9.81,0.45h15.48c3.06-5.76,4.5-9.27,5.4-12.69l10.8,1.62
			c-0.9,1.89-0.9,1.89-1.8,3.78c-1.17,2.34-1.17,2.34-3.51,7.29h34.2c5.22,0,7.38-0.09,9.9-0.45V401c-2.79-0.36-5.49-0.54-9.9-0.54
			H334.7z M306,366.17c0-2.7-0.09-4.68-0.45-6.84h10.98c-0.27,1.89-0.45,4.05-0.45,6.75v1.62h24.3c4.41,0,7.29-0.09,10.35-0.45
			c-0.27,2.34-0.36,4.41-0.36,6.93v6.66c0,2.61,0.09,4.59,0.45,6.66h-9.9v-10.8h-58.14v10.8h-9.9c0.27-2.07,0.45-3.96,0.45-6.66
			v-6.66c0-2.16-0.18-4.59-0.45-6.93c3.06,0.36,5.85,0.45,10.35,0.45H306V366.17z M303.29,400.46c-2.61,4.41-3.6,6.03-6.93,10.71
			c8.91,2.61,11.07,3.24,17.46,5.58c5.13-4.86,7.83-9.18,10.44-16.29H303.29z"/>
		<path class="st0" d="M359.28,423.5c6.03-11.52,8.01-18.63,10.17-36.54l9.99,2.07c-2.97,21.78-4.5,27.54-10.26,40.05L359.28,423.5z
			 M394.73,427.64c0,2.25,1.71,2.7,9.99,2.7c7.2,0,9.81-0.63,10.8-2.7c1.17-2.52,1.8-8.46,1.98-17.82c3.87,1.89,6.3,2.7,10.08,3.6
			c-0.81,12.15-1.71,17.28-3.69,21.06c-2.52,4.59-6.48,5.67-20.88,5.67c-15.93,0-18.63-1.44-18.63-9.63v-42.48
			c0-3.42-0.18-5.58-0.63-9.18h11.61c-0.45,2.88-0.63,5.67-0.63,8.91V427.64z M414.44,381.92c-9-5.94-15.66-9.18-30.42-14.49
			l5.76-8.55c13.41,4.59,20.16,7.56,30.87,13.59L414.44,381.92z M434.87,427.1c-4.14-15.66-7.92-25.47-14.49-37.35l9.63-4.32
			c6.66,11.88,10.08,20.25,15.21,36.45L434.87,427.1z"/>
		<path class="st0" d="M487.88,413.87c-5.13,11.61-10.89,16.92-18.27,16.92c-10.26,0-17.64-10.44-17.64-24.93
			c0-9.9,3.51-19.17,9.9-26.19c7.56-8.28,18.18-12.6,30.96-12.6c21.6,0,35.64,13.14,35.64,33.39c0,15.57-8.1,27.99-21.87,33.57
			c-4.32,1.8-7.83,2.7-14.13,3.78c-1.53-4.77-2.61-6.75-5.49-10.53c8.28-1.08,13.68-2.52,17.91-4.95
			c7.83-4.32,12.51-12.87,12.51-22.5c0-8.64-3.87-15.66-11.07-19.98c-2.79-1.62-5.13-2.34-9.09-2.7
			C495.53,391.28,492.38,403.7,487.88,413.87z M474.65,381.65c-7.56,5.4-12.24,14.67-12.24,24.3c0,7.38,3.15,13.23,7.11,13.23
			c2.97,0,6.03-3.78,9.27-11.52c3.42-8.1,6.39-20.25,7.47-30.42C481.58,377.78,478.34,379.04,474.65,381.65z"/>
		<path class="st0" d="M235.57,475.98c-4.59,0-7.56,0.09-10.89,0.54v-9.9c3.15,0.45,6.48,0.63,11.52,0.63h23.76
			c-0.09-3.69-0.18-5.22-0.63-8.1h10.98c-0.45,2.79-0.54,4.68-0.54,8.1h24.57c5.58,0,9-0.18,11.79-0.63v9.9
			c-2.97-0.36-6.75-0.54-11.16-0.54h-25.2v5.04h18.81c5.49,0,7.2-0.09,9.99-0.36c-0.27,2.7-0.36,5.67-0.36,9.09v16.65
			c0,5.04,0,5.04,0.36,9.18c-2.61-0.36-5.13-0.45-10.08-0.45h-10.8c8.01,7.56,17.55,12.24,31.23,15.39
			c-2.34,3.6-3.15,5.22-5.13,9.54c-7.29-2.43-12.69-4.86-18.45-8.19c-6.66-3.96-10.89-7.38-15.75-12.96
			c0.09,2.97,0.18,4.68,0.18,6.21v6.48c0,4.59,0.09,7.2,0.63,10.26h-11.07c0.45-3.51,0.63-6.12,0.63-10.26v-6.48
			c0-1.08,0.09-4.41,0.18-6.12c-4.59,5.67-10.08,10.17-17.19,14.22c-4.32,2.52-9.99,5.04-15.39,6.93c-1.98-4.5-2.79-6.03-5.04-9.09
			c6.75-1.89,11.43-3.69,16.92-6.66s9.81-6.12,12.87-9.27h-9.72c-5.58,0-7.38,0.09-10.17,0.45c0-0.9,0-0.9,0.27-2.61
			c0-0.36,0-0.36,0.09-6.57v-16.56c0-4.68-0.09-6.12-0.36-9.27c2.43,0.36,4.59,0.45,9.81,0.45h17.73v-5.04H235.57z M242.32,488.76
			v5.49h17.64v-5.49H242.32z M242.32,501.72v5.67h17.64v-5.67H242.32z M269.77,494.25h18.9v-5.49h-18.9V494.25z M269.77,507.39h18.9
			v-5.67h-18.9V507.39z"/>
		<path class="st0" d="M313.69,474c2.16,0.36,3.87,0.45,7.2,0.45h18.81c3.69,0,5.13-0.09,7.2-0.36v9.27
			c-1.89-0.27-3.06-0.36-6.84-0.36h-19.17c-3.15,0-5.04,0.09-7.2,0.36V474z M316.21,542.31c0.36-2.7,0.54-5.67,0.54-8.82v-13.32
			c0-2.88-0.09-4.86-0.45-7.11c2.25,0.27,4.32,0.36,6.93,0.36h15.03c3.51,0,4.5,0,6.03-0.27c-0.18,1.8-0.27,3.24-0.27,6.48v14.4
			c0,3.69,0.09,5.4,0.27,7.02h-8.73v-3.06H325.3v4.32H316.21z M316.57,461.4c2.34,0.27,3.87,0.36,7.47,0.36h13.14
			c3.69,0,5.22-0.09,7.56-0.36v8.64c-2.25-0.27-4.14-0.36-7.56-0.36h-13.14c-3.33,0-5.31,0.09-7.47,0.36V461.4z M316.93,487.68
			c1.8,0.18,2.97,0.27,5.94,0.27h15.75c2.97,0,4.14-0.09,5.76-0.27v8.37c-1.98-0.18-3.06-0.27-5.76-0.27h-15.75
			c-2.88,0-4.14,0.09-5.94,0.27V487.68z M316.93,500.19c1.8,0.18,2.97,0.27,5.94,0.27h15.75c2.97,0,4.14-0.09,5.76-0.27v8.37
			c-2.07-0.27-2.97-0.27-5.94-0.27h-15.66c-2.7,0-4.14,0.09-5.85,0.27V500.19z M325.3,530.07h10.26v-8.91H325.3V530.07z
			 M369.31,472.02h-10.17c-4.23,0-7.47,0.18-10.35,0.54v-10.17c2.79,0.36,5.94,0.54,10.35,0.54h26.73c4.41,0,7.56-0.18,10.35-0.54
			v10.17c-2.79-0.36-6.03-0.54-10.26-0.54h-7.29v21.96h7.38c4.23,0,6.21-0.09,8.82-0.54v10.17c-2.52-0.45-4.77-0.54-8.82-0.54h-7.38
			v26.46h8.64c3.78,0,7.02-0.18,9.99-0.54v10.35c-2.97-0.36-6.03-0.54-10.17-0.54h-30.51c-4.59,0-7.47,0.18-10.08,0.54v-10.17
			c1.71,0.27,3.15,0.36,5.58,0.36v-34.56c0-4.41-0.09-6.84-0.54-9.9h10.26c-0.45,2.7-0.54,5.13-0.54,9.9v34.56h8.01V472.02z"/>
		<path class="st0" d="M485.68,505.05c-4.14-0.45-8.28-0.63-13.68-0.63h-53.28c-5.04,0-9.72,0.27-13.77,0.63v-11.88
			c3.87,0.45,7.92,0.63,13.77,0.63H472c6.03,0,10.17-0.18,13.68-0.63V505.05z"/>
		<path class="st0" d="M532.84,492.27c3.87,0,6.03-0.09,7.74-0.45v9.9c-1.98-0.36-4.32-0.45-7.29-0.45h-30.15
			c-4.41,0-6.39,0.09-9,0.45v-9.9c2.43,0.36,4.5,0.45,9.09,0.45h17.73c2.16-5.04,3.51-9.18,4.68-14.67l9.27,2.34
			c-1.26,4.32-2.79,8.19-4.77,12.33H532.84z M531.58,467.97c4.05,0,6.03-0.09,8.19-0.45v9.72c-1.89-0.36-3.69-0.45-7.56-0.45h-28.8
			c-3.33,0-5.4,0.09-7.38,0.45v-9.72c2.07,0.36,4.14,0.45,8.55,0.45h9.18v-2.52c0-2.52-0.18-4.5-0.54-6.3h10.71
			c-0.27,1.8-0.45,3.69-0.45,6.3v2.52H531.58z M508.9,541.95h-9.72c0.27-2.52,0.36-4.68,0.36-8.46v-19.53
			c0-3.69-0.09-5.31-0.27-7.38c2.07,0.18,3.87,0.27,7.2,0.27h23.22c3.69,0,5.22-0.09,6.57-0.27c-0.18,1.62-0.27,2.79-0.27,6.66
			v21.87c0,3.15,0.09,4.77,0.36,6.75h-9.9v-5.13H508.9V541.95z M510.34,476.88c2.07,4.14,3.33,7.56,4.68,12.6l-8.91,2.7
			c-1.26-5.4-2.25-8.46-4.23-12.6L510.34,476.88z M508.9,528.09h17.64v-12.6H508.9V528.09z M577.48,467.52
			c-0.63,1.17-0.99,1.89-1.8,3.96c-3.06,8.01-5.94,14.22-9.72,21.42c4.95,5.67,6.93,8.64,8.64,13.05c1.62,3.87,2.52,8.46,2.52,12.51
			c0,5.67-2.34,9.81-6.39,11.25c-2.25,0.9-4.77,1.17-9.18,1.17c-1.53,0-2.34,0-4.5-0.18c-0.18-4.68-0.63-6.84-2.07-9.81
			c2.34,0.36,4.14,0.54,6.75,0.54c4.5,0,5.94-0.99,5.94-3.87c0-3.78-0.99-7.74-2.88-11.61c-2.07-4.14-4.05-6.75-9.36-11.7
			c5.22-9.63,7.92-16.02,9.9-23.58h-12.51v61.29c0,4.86,0.18,7.92,0.63,10.53h-10.62c0.36-2.88,0.54-6.39,0.54-10.26v-63.27
			c0-2.61-0.09-5.13-0.36-7.56c2.43,0.27,4.41,0.36,7.38,0.36h15.57c3.51,0,5.4-0.09,7.11-0.45L577.48,467.52z"/>
	</g>
	<g>
		<path class="st0" d="M191.66,175.28v36.26h51.24v21.98h-51.24v48.16h58.38v21.84H117.32v-21.84h51.8v-106.4H191.66z"/>
		<path class="st0" d="M319.79,266.84c-6.44,4.62-11.34,7-15.96,9.1l-2.38-3.64v1.82c-11.48,5.04-23.94,9.8-39.06,14.14l-2.24-21.84
			c3.92-0.7,4.76-0.98,13.02-3.22v-37.38h-11.2V205.8h11.2v-30.1h19.88v30.1h7.84v20.02h-7.84v31.36c2.66-0.84,4.34-1.54,7.84-3.08
			l0.14,5.88c9.52-4.48,14.28-9.24,18.76-14.14h-19.46v-15.82h94.64v15.82h-56.28c-1.54,2.52-2.24,3.5-3.5,5.32h56.56
			c-0.14,10.22-0.7,39.76-4.34,48.3c-3.22,7.84-9.1,8.4-13.44,8.4h-21.14l-2.8-13.58c-8.68,8.68-17.08,12.74-23.38,15.68
			l-11.9-12.04c26.32-11.2,33.6-25.06,36.68-31.08h-6.3c-5.18,7.98-16.1,23.52-47.04,32.48l-7.42-14
			c15.96-4.2,25.06-7.98,36.26-18.48H319.79z M306.07,179.34h80.92v45.64h-80.92V179.34z M325.53,191.94v6.3h41.58v-6.3H325.53z
			 M325.53,206.92v6.72h41.58v-6.72H325.53z M364.87,290.78c4.76,0,6.58-1.26,7.56-23.94h-4.48c-3.5,7.84-6.44,14.42-14.56,23.94
			H364.87z"/>
		<path class="st0" d="M529.07,233.94c-22.82-9.66-42.98-24.5-58.8-42.42c-16.94,20.44-38.92,34.3-59.08,42.7l-9.38-21.14
			c12.74-4.48,38.08-14.42,57.12-37.94h23.1c19.46,23.66,44.66,33.18,57.26,37.38L529.07,233.94z M524.31,237.16v19.88h-41.16v26.46
			h51.24v20.44H406.71V283.5h15.4v-50.54h20.72v50.54h19.6v-71.26h20.72v24.92H524.31z"/>
		<path class="st0" d="M548.7,288.12c5.32-1.26,23.1-5.46,40.74-15.12h-39.9v-16.24h55.72v-5.6h-46.62v-13.44h46.62v-5.6h-50.4
			v-15.68h28.28c-1.12-3.64-1.68-4.9-2.8-7.14h-30.8v-17.36h17.5c-1.68-4.2-3.64-8.4-6.16-12.74l20.3-3.78
			c2.38,4.9,4.06,9.1,6.02,16.52h6.02v-16.1h18.48v16.1h7.84v-16.1h18.62v16.1h5.6c2.38-4.76,4.9-12.32,6.02-16.52l20.3,3.78
			c-1.26,3.22-3.36,8.4-5.74,12.74h16.8v17.36h-30.52l-2.38,7.14h28.28v15.68h-50.54v5.6h46.76v13.44h-46.76v5.6h55.16V273h-39.9
			c16.1,9.38,32.62,12.88,41.44,14.42l-10.36,19.32c-21.84-6.72-31.78-11.34-46.34-24.5v25.62h-20.72V282.8
			c-9.8,8.68-18.9,15.26-46.62,24.08L548.7,288.12z M601.9,209.3c0.42,1.12,2.24,6.16,2.66,7.14h22.82
			c0.42-1.12,1.12-2.52,2.24-7.14H601.9z"/>
	</g>
	<g>
		<linearGradient id="SVGID_1_" gradientUnits="userSpaceOnUse" x1="321.6399" y1="51.4603" x2="478.3601" y2="51.4603">
			<stop  offset="0" style="stop-color:#926E3F"/>
			<stop  offset="0.5162" style="stop-color:#F6C582"/>
			<stop  offset="0.6151" style="stop-color:#E7B878"/>
			<stop  offset="0.8048" style="stop-color:#C0965E"/>
			<stop  offset="1" style="stop-color:#926E3F"/>
		</linearGradient>
		<path class="st1" d="M471.54,28.26c-3.77,0-6.82,3.05-6.82,6.82c0,1.01,0.23,1.96,0.63,2.83l-38.05,17.36l-24.63-42.17
			c2.45-1.04,4.16-3.46,4.16-6.28c0-3.77-3.05-6.82-6.82-6.82c-3.77,0-6.82,3.05-6.82,6.82c0,2.8,1.69,5.2,4.1,6.25l-23.59,42.2
			l-39.03-17.76c0.39-0.86,0.63-1.81,0.63-2.82c0-3.77-3.05-6.82-6.82-6.82c-3.77,0-6.82,3.05-6.82,6.82c0,3.77,3.05,6.82,6.82,6.82
			c0.68,0,1.32-0.13,1.94-0.31l18.38,61.71h102.48l18.33-61.33c0.62,0.19,1.26,0.32,1.94,0.32c3.77,0,6.82-3.05,6.82-6.82
			C478.36,31.32,475.31,28.26,471.54,28.26z"/>
	</g>
	<g>
		<g>
			
				<linearGradient id="SVGID_2_" gradientUnits="userSpaceOnUse" x1="177.2687" y1="217.8752" x2="177.2687" y2="735.7578" gradientTransform="matrix(0.9856 0.1689 -0.1689 0.9856 112.8553 -110.2197)">
				<stop  offset="0" style="stop-color:#926E3F"/>
				<stop  offset="0.5162" style="stop-color:#F6C582"/>
				<stop  offset="0.6151" style="stop-color:#E7B878"/>
				<stop  offset="0.8048" style="stop-color:#C0965E"/>
				<stop  offset="1" style="stop-color:#926E3F"/>
			</linearGradient>
			<path class="st2" d="M332.74,651.23c-22.82-3.91-45.5-10.12-67.62-18.51c-25.91-10.07-50.82-23.28-74.05-39.27
				c-22.85-16.01-43.88-34.78-62.52-55.82c-18.15-20.67-34.05-43.95-47.26-69.21c-12.84-24.42-22.78-50.81-29.54-78.44
				c-6.83-27.83-10.19-55.82-9.99-83.2c0.11-28.87,3.56-56.85,10.25-83.17c7-28.01,17.01-54.37,29.75-78.35l3.58,1.9
				c-12.58,23.69-22.47,49.75-29.39,77.44c-6.61,26.01-10.02,53.67-10.13,82.21c-0.2,27.05,3.12,54.71,9.87,82.21
				c6.68,27.31,16.51,53.39,29.19,77.52c13.07,24.97,28.78,47.99,46.71,68.41c18.43,20.79,39.22,39.36,61.79,55.17
				c22.96,15.81,47.59,28.87,73.19,38.82c26.22,9.95,53.24,16.81,80.32,20.34l-0.53,4.03C341.82,652.69,337.28,652.01,332.74,651.23
				z"/>
			
				<linearGradient id="SVGID_3_" gradientUnits="userSpaceOnUse" x1="-11.285" y1="217.8751" x2="-11.285" y2="735.7547" gradientTransform="matrix(0.9856 0.1689 -0.1689 0.9856 112.8553 -110.2197)">
				<stop  offset="0" style="stop-color:#926E3F"/>
				<stop  offset="0.5162" style="stop-color:#F6C582"/>
				<stop  offset="0.6151" style="stop-color:#E7B878"/>
				<stop  offset="0.8048" style="stop-color:#C0965E"/>
				<stop  offset="1" style="stop-color:#926E3F"/>
			</linearGradient>
			<path class="st3" d="M64.41,191.44c-12.06-3.73-19.48-9.91-23.66-17.49c-4.12-7.53-4.7-16.26-3.77-24.56
				c1.29-8.14,3.81-15.96,6.59-21.39c2.68-5.48,4.94-8.9,4.94-8.9s2.89,2.01,6.68,5.66c3.79,3.65,8.49,8.94,12.17,15.35
				c3.58,6.37,6.62,14.06,6.59,22.48c-0.09,4.18-0.52,8.75-2.09,13.5c-0.75,2.39-1.83,4.82-3.05,7.37
				C67.63,186.03,66.18,188.68,64.41,191.44z"/>
			
				<linearGradient id="SVGID_4_" gradientUnits="userSpaceOnUse" x1="24.0381" y1="217.876" x2="24.0381" y2="735.7526" gradientTransform="matrix(0.9856 0.1689 -0.1689 0.9856 112.8553 -110.2197)">
				<stop  offset="0" style="stop-color:#926E3F"/>
				<stop  offset="0.5162" style="stop-color:#F6C582"/>
				<stop  offset="0.6151" style="stop-color:#E7B878"/>
				<stop  offset="0.8048" style="stop-color:#C0965E"/>
				<stop  offset="1" style="stop-color:#926E3F"/>
			</linearGradient>
			<path class="st4" d="M64.33,191.42c17.91,6.99,28.97,0.39,36.24-7.14c3.45-3.89,6.21-8.04,7.92-11.34
				c1.73-3.29,2.52-5.67,2.52-5.67s-9.83-4.07-20.81-3.14c-5.42,0.5-11.44,2.17-16.12,6.46C69.37,174.84,65.37,181.48,64.33,191.42z
				"/>
			
				<linearGradient id="SVGID_5_" gradientUnits="userSpaceOnUse" x1="-20.8645" y1="217.875" x2="-20.8645" y2="735.7555" gradientTransform="matrix(0.9856 0.1689 -0.1689 0.9856 112.8553 -110.2197)">
				<stop  offset="0" style="stop-color:#926E3F"/>
				<stop  offset="0.5162" style="stop-color:#F6C582"/>
				<stop  offset="0.6151" style="stop-color:#E7B878"/>
				<stop  offset="0.8048" style="stop-color:#C0965E"/>
				<stop  offset="1" style="stop-color:#926E3F"/>
			</linearGradient>
			<path class="st5" d="M50.69,241.58c-12.48-1.89-20.72-6.89-25.96-13.76c-5.39-6.88-7.01-15.37-7.4-23.74
				c-0.07-8.28,1.55-16.31,3.28-22.15c1.86-5.81,3.62-9.52,3.62-9.52s3.16,1.55,7.44,4.6c4.29,3.04,9.71,7.56,14.28,13.35
				c4.58,5.8,8.69,12.94,9.86,21.25C57.28,220.06,55.95,229.65,50.69,241.58z"/>
			
				<linearGradient id="SVGID_6_" gradientUnits="userSpaceOnUse" x1="16.0142" y1="217.8764" x2="16.0142" y2="735.7524" gradientTransform="matrix(0.9856 0.1689 -0.1689 0.9856 112.8553 -110.2197)">
				<stop  offset="0" style="stop-color:#926E3F"/>
				<stop  offset="0.5162" style="stop-color:#F6C582"/>
				<stop  offset="0.6151" style="stop-color:#E7B878"/>
				<stop  offset="0.8048" style="stop-color:#C0965E"/>
				<stop  offset="1" style="stop-color:#926E3F"/>
			</linearGradient>
			<path class="st6" d="M50.61,241.58c9.34,2.18,16.6,1.12,22.18-1.45c2.81-1.29,5.13-2.98,7.21-4.86c2.13-1.88,3.92-3.98,5.4-6.14
				c1.49-2.16,2.68-4.39,3.63-6.53c1.07-2.1,1.89-4.11,2.51-5.86c1.24-3.5,1.69-5.97,1.69-5.97s-10.34-2.56-21.08-0.02
				c-5.36,1.28-10.96,3.86-14.95,8.8c-2.04,2.45-3.77,5.46-5.02,9.1C51.02,232.3,50.51,236.63,50.61,241.58z"/>
			
				<linearGradient id="SVGID_7_" gradientUnits="userSpaceOnUse" x1="-22.5482" y1="217.8739" x2="-22.5482" y2="735.7577" gradientTransform="matrix(0.9856 0.1689 -0.1689 0.9856 112.8553 -110.2197)">
				<stop  offset="0" style="stop-color:#926E3F"/>
				<stop  offset="0.5162" style="stop-color:#F6C582"/>
				<stop  offset="0.6151" style="stop-color:#E7B878"/>
				<stop  offset="0.8048" style="stop-color:#C0965E"/>
				<stop  offset="1" style="stop-color:#926E3F"/>
			</linearGradient>
			<path class="st7" d="M44.62,293.22c-12.63,0-21.51-3.7-27.68-9.72c-6.31-5.99-9.34-14.16-10.85-22.37
				c-1.5-8.21-0.79-16.34-0.12-22.41c0.96-6.02,2.19-9.95,2.19-9.95s3.35,1.06,8.04,3.44c4.69,2.37,10.69,6.03,16.08,11.07
				c5.55,5.08,10.49,11.49,12.93,19.54c1.38,4.05,2.13,8.52,2.01,13.52C47.04,281.35,46.52,286.92,44.62,293.22z"/>
			
				<linearGradient id="SVGID_8_" gradientUnits="userSpaceOnUse" x1="15.0659" y1="217.8759" x2="15.0659" y2="735.754" gradientTransform="matrix(0.9856 0.1689 -0.1689 0.9856 112.8553 -110.2197)">
				<stop  offset="0" style="stop-color:#926E3F"/>
				<stop  offset="0.5162" style="stop-color:#F6C582"/>
				<stop  offset="0.6151" style="stop-color:#E7B878"/>
				<stop  offset="0.8048" style="stop-color:#C0965E"/>
				<stop  offset="1" style="stop-color:#926E3F"/>
			</linearGradient>
			<path class="st8" d="M44.54,293.22c9.56,0.75,16.59-1.38,21.75-4.75c5.13-3.39,8.39-8.05,10.81-12.76
				c2.33-4.71,3.37-9.53,4.21-13.16c0.73-3.64,0.82-6.14,0.82-6.14s-10.61-1-20.89,3.12c-2.57,1.03-5.14,2.39-7.47,4.18
				c-2.26,1.8-4.31,4.02-5.98,6.75c-1.64,2.73-3,5.96-3.61,9.75C43.64,284,43.7,288.34,44.54,293.22z"/>
			
				<linearGradient id="SVGID_9_" gradientUnits="userSpaceOnUse" x1="-16.0532" y1="217.8739" x2="-16.0532" y2="735.756" gradientTransform="matrix(0.9856 0.1689 -0.1689 0.9856 112.8553 -110.2197)">
				<stop  offset="0" style="stop-color:#926E3F"/>
				<stop  offset="0.5162" style="stop-color:#F6C582"/>
				<stop  offset="0.6151" style="stop-color:#E7B878"/>
				<stop  offset="0.8048" style="stop-color:#C0965E"/>
				<stop  offset="1" style="stop-color:#926E3F"/>
			</linearGradient>
			<path class="st9" d="M46.37,345.17c-12.49,1.9-21.81-0.42-28.79-5.44c-3.46-2.5-6.46-5.63-8.75-9.15
				c-2.25-3.52-3.99-7.4-5.33-11.34c-0.67-1.97-1.25-3.96-1.73-5.93c-0.4-1.97-0.71-3.92-0.96-5.81c-0.49-3.79-0.71-7.35-0.78-10.4
				c-0.12-3.06,0.16-5.59,0.31-7.37c0.21-1.77,0.33-2.79,0.33-2.79s3.47,0.55,8.45,2.19c5.03,1.64,11.36,4.35,17.61,8.54
				c6.27,4.19,11.96,9.79,15.71,17.38c1.95,3.8,3.35,8.11,3.96,13.07C47.1,333.07,47.3,338.67,46.37,345.17z"/>
			
				<linearGradient id="SVGID_10_" gradientUnits="userSpaceOnUse" x1="21.8157" y1="217.8752" x2="21.8157" y2="735.7557" gradientTransform="matrix(0.9856 0.1689 -0.1689 0.9856 112.8553 -110.2197)">
				<stop  offset="0" style="stop-color:#926E3F"/>
				<stop  offset="0.5162" style="stop-color:#F6C582"/>
				<stop  offset="0.6151" style="stop-color:#E7B878"/>
				<stop  offset="0.8048" style="stop-color:#C0965E"/>
				<stop  offset="1" style="stop-color:#926E3F"/>
			</linearGradient>
			<path class="st10" d="M46.3,345.19c9.56-0.7,16.2-3.87,20.81-7.98c4.64-4.13,7.02-9.22,8.76-14.23
				c1.69-5.01,1.86-9.92,2.17-13.64c0.2-3.7-0.08-6.19-0.08-6.19s-10.64,0.61-20.22,6.21c-4.88,2.81-9.12,6.92-11.63,12.83
				C43.45,328.08,43.2,335.77,46.3,345.19z"/>
			
				<linearGradient id="SVGID_11_" gradientUnits="userSpaceOnUse" x1="-1.404" y1="217.8745" x2="-1.404" y2="735.7557" gradientTransform="matrix(0.9856 0.1689 -0.1689 0.9856 112.8553 -110.2197)">
				<stop  offset="0" style="stop-color:#926E3F"/>
				<stop  offset="0.5162" style="stop-color:#F6C582"/>
				<stop  offset="0.6151" style="stop-color:#E7B878"/>
				<stop  offset="0.8048" style="stop-color:#C0965E"/>
				<stop  offset="1" style="stop-color:#926E3F"/>
			</linearGradient>
			<path class="st11" d="M55.96,396.27c-12.06,3.76-21.62,2.87-29.27-1.04c-3.81-1.94-7.19-4.6-10.05-7.72
				c-2.74-3.14-5.04-6.71-6.96-10.41c-4-7.38-5.64-15.37-6.76-21.37c-0.56-3.01-0.79-5.54-0.85-7.33c-0.06-1.79-0.09-2.81-0.09-2.81
				s3.51,0.02,8.68,0.9c5.18,0.87,11.91,2.59,18.73,5.78c6.84,3.19,13.21,7.89,18.15,14.81c2.49,3.46,4.51,7.51,5.85,12.33
				C54.92,384.18,55.89,389.7,55.96,396.27z"/>
			
				<linearGradient id="SVGID_12_" gradientUnits="userSpaceOnUse" x1="36.1535" y1="217.8763" x2="36.1535" y2="735.7531" gradientTransform="matrix(0.9856 0.1689 -0.1689 0.9856 112.8553 -110.2197)">
				<stop  offset="0" style="stop-color:#926E3F"/>
				<stop  offset="0.5162" style="stop-color:#F6C582"/>
				<stop  offset="0.6151" style="stop-color:#E7B878"/>
				<stop  offset="0.8048" style="stop-color:#C0965E"/>
				<stop  offset="1" style="stop-color:#926E3F"/>
			</linearGradient>
			<path class="st12" d="M55.89,396.3c9.35-2.13,15.44-6.27,19.38-11.02c4.01-4.79,5.52-10.17,6.5-15.39
				c0.9-5.2,0.42-10.11,0.08-13.8c-0.35-3.69-0.99-6.11-0.99-6.11s-10.43,2.2-19.08,9.19c-4.4,3.51-7.9,8.21-9.55,14.43
				C50.48,379.82,51.46,387.44,55.89,396.3z"/>
			
				<linearGradient id="SVGID_13_" gradientUnits="userSpaceOnUse" x1="21.093" y1="217.8745" x2="21.093" y2="735.7565" gradientTransform="matrix(0.9856 0.1689 -0.1689 0.9856 112.8553 -110.2197)">
				<stop  offset="0" style="stop-color:#926E3F"/>
				<stop  offset="0.5162" style="stop-color:#F6C582"/>
				<stop  offset="0.6151" style="stop-color:#E7B878"/>
				<stop  offset="0.8048" style="stop-color:#C0965E"/>
				<stop  offset="1" style="stop-color:#926E3F"/>
			</linearGradient>
			<path class="st13" d="M73.13,445.35c-11.37,5.51-20.96,6.05-29.11,3.34c-4.06-1.35-7.82-3.46-11.08-6.12
				c-3.18-2.69-5.99-5.87-8.44-9.24c-5.06-6.68-7.89-14.33-9.88-20.1c-0.98-2.89-1.64-5.35-1.96-7.11
				c-0.32-1.76-0.51-2.77-0.51-2.77s3.48-0.51,8.71-0.42c5.23,0.08,12.18,0.76,19.4,2.89c7.25,2.12,14.24,5.81,20.16,11.91
				c2.99,3.05,5.59,6.75,7.63,11.32C70.26,433.57,72.08,438.87,73.13,445.35z"/>
			
				<linearGradient id="SVGID_14_" gradientUnits="userSpaceOnUse" x1="57.6707" y1="217.8773" x2="57.6707" y2="735.7548" gradientTransform="matrix(0.9856 0.1689 -0.1689 0.9856 112.8553 -110.2197)">
				<stop  offset="0" style="stop-color:#926E3F"/>
				<stop  offset="0.5162" style="stop-color:#F6C582"/>
				<stop  offset="0.6151" style="stop-color:#E7B878"/>
				<stop  offset="0.8048" style="stop-color:#C0965E"/>
				<stop  offset="1" style="stop-color:#926E3F"/>
			</linearGradient>
			<path class="st14" d="M73.07,445.4c8.93-3.49,14.33-8.49,17.51-13.79c3.23-5.33,3.94-10.9,4.12-16.21
				c0.11-5.29-1.11-10.07-2.01-13.68c-0.9-3.6-1.89-5.9-1.89-5.9s-9.98,3.75-17.48,11.96c-3.82,4.13-6.57,9.3-7.26,15.7
				C65.25,429.91,67.33,437.31,73.07,445.4z"/>
			
				<linearGradient id="SVGID_15_" gradientUnits="userSpaceOnUse" x1="50.834" y1="217.8739" x2="50.834" y2="735.7546" gradientTransform="matrix(0.9856 0.1689 -0.1689 0.9856 112.8553 -110.2197)">
				<stop  offset="0" style="stop-color:#926E3F"/>
				<stop  offset="0.5162" style="stop-color:#F6C582"/>
				<stop  offset="0.6151" style="stop-color:#E7B878"/>
				<stop  offset="0.8048" style="stop-color:#C0965E"/>
				<stop  offset="1" style="stop-color:#926E3F"/>
			</linearGradient>
			<path class="st15" d="M97.37,491.36c-10.42,7.14-19.83,9.1-28.32,7.63c-8.59-1.38-15.74-6.37-21.58-12.31
				c-1.46-1.48-2.85-3.02-4.14-4.58c-1.21-1.6-2.34-3.21-3.39-4.81c-2.09-3.19-3.83-6.29-5.22-9c-1.43-2.69-2.36-5.06-2.96-6.74
				c-0.58-1.69-0.91-2.65-0.91-2.65s3.36-1.02,8.55-1.72c5.22-0.71,12.11-1.05,19.59-0.03c7.46,1.03,15.02,3.6,21.7,8.8
				c3.42,2.57,6.55,5.84,9.26,10.04C92.7,480.18,95.38,485.1,97.37,491.36z"/>
			
				<linearGradient id="SVGID_16_" gradientUnits="userSpaceOnUse" x1="85.6982" y1="217.8773" x2="85.6982" y2="735.7556" gradientTransform="matrix(0.9856 0.1689 -0.1689 0.9856 112.8553 -110.2197)">
				<stop  offset="0" style="stop-color:#926E3F"/>
				<stop  offset="0.5162" style="stop-color:#F6C582"/>
				<stop  offset="0.6151" style="stop-color:#E7B878"/>
				<stop  offset="0.8048" style="stop-color:#C0965E"/>
				<stop  offset="1" style="stop-color:#926E3F"/>
			</linearGradient>
			<path class="st16" d="M97.31,491.41c8.31-4.78,12.91-10.52,15.26-16.22c2.35-5.71,2.33-11.37,1.69-16.64
				c-0.67-5.25-2.67-9.74-4-13.24c-1.44-3.43-2.77-5.56-2.77-5.56s-9.31,5.19-15.49,14.42c-3.17,4.66-5.19,10.21-4.88,16.61
				c0.2,3.18,0.84,6.64,2.54,10.08C91.37,484.3,93.87,487.85,97.31,491.41z"/>
			
				<linearGradient id="SVGID_17_" gradientUnits="userSpaceOnUse" x1="87.126" y1="217.8735" x2="87.126" y2="735.7557" gradientTransform="matrix(0.9856 0.1689 -0.1689 0.9856 112.8553 -110.2197)">
				<stop  offset="0" style="stop-color:#926E3F"/>
				<stop  offset="0.5162" style="stop-color:#F6C582"/>
				<stop  offset="0.6151" style="stop-color:#E7B878"/>
				<stop  offset="0.8048" style="stop-color:#C0965E"/>
				<stop  offset="1" style="stop-color:#926E3F"/>
			</linearGradient>
			<path class="st17" d="M128.2,533.22c-9.23,8.63-18.23,11.98-26.84,11.8c-8.69-0.08-16.53-3.94-23.2-8.94
				c-6.79-4.92-11.72-11.42-15.37-16.31c-1.83-2.45-3.03-4.7-3.91-6.26c-0.83-1.58-1.31-2.49-1.31-2.49s3.18-1.51,8.21-2.97
				c5.08-1.49,11.82-2.82,19.35-2.91c7.54-0.09,15.42,1.3,22.77,5.46c3.76,2.03,7.36,4.78,10.67,8.53
				C121.91,522.86,125.29,527.33,128.2,533.22z"/>
			
				<linearGradient id="SVGID_18_" gradientUnits="userSpaceOnUse" x1="119.5319" y1="217.8764" x2="119.5319" y2="735.7563" gradientTransform="matrix(0.9856 0.1689 -0.1689 0.9856 112.8553 -110.2197)">
				<stop  offset="0" style="stop-color:#926E3F"/>
				<stop  offset="0.5162" style="stop-color:#F6C582"/>
				<stop  offset="0.6151" style="stop-color:#E7B878"/>
				<stop  offset="0.8048" style="stop-color:#C0965E"/>
				<stop  offset="1" style="stop-color:#926E3F"/>
			</linearGradient>
			<path class="st18" d="M128.15,533.28c7.5-5.98,11.18-12.35,12.65-18.33c1.47-6,0.6-11.59-0.82-16.7
				c-1.46-5.07-4.08-9.23-5.92-12.47c-1.93-3.17-3.57-5.06-3.57-5.06s-8.44,6.52-13.17,16.55c-2.43,5.07-3.63,10.88-2.35,17.16
				c0.67,3.11,1.83,6.44,4.03,9.58C121.21,527.14,124.21,530.27,128.15,533.28z"/>
			
				<linearGradient id="SVGID_19_" gradientUnits="userSpaceOnUse" x1="129.2524" y1="217.8726" x2="129.2524" y2="735.7413" gradientTransform="matrix(0.9856 0.1689 -0.1689 0.9856 112.8553 -110.2197)">
				<stop  offset="0" style="stop-color:#926E3F"/>
				<stop  offset="0.5162" style="stop-color:#F6C582"/>
				<stop  offset="0.6151" style="stop-color:#E7B878"/>
				<stop  offset="0.8048" style="stop-color:#C0965E"/>
				<stop  offset="1" style="stop-color:#926E3F"/>
			</linearGradient>
			<path class="st19" d="M164.98,569.96c-7.82,9.92-16.21,14.59-24.74,15.69c-4.24,0.55-8.55,0.28-12.64-0.7
				c-4.04-1.03-7.96-2.68-11.64-4.65c-7.48-3.81-13.32-9.52-17.66-13.81c-2.17-2.15-3.74-4.17-4.83-5.59
				c-1.06-1.44-1.67-2.27-1.67-2.27s2.91-1.97,7.67-4.17c4.79-2.24,11.26-4.56,18.7-5.8c7.44-1.23,15.4-1,23.34,1.96
				c4.02,1.44,7.98,3.64,11.81,6.85C157.26,560.6,161.21,564.58,164.98,569.96z"/>
			
				<linearGradient id="SVGID_20_" gradientUnits="userSpaceOnUse" x1="158.4529" y1="217.8783" x2="158.4529" y2="735.7538" gradientTransform="matrix(0.9856 0.1689 -0.1689 0.9856 112.8553 -110.2197)">
				<stop  offset="0" style="stop-color:#926E3F"/>
				<stop  offset="0.5162" style="stop-color:#F6C582"/>
				<stop  offset="0.6151" style="stop-color:#E7B878"/>
				<stop  offset="0.8048" style="stop-color:#C0965E"/>
				<stop  offset="1" style="stop-color:#926E3F"/>
			</linearGradient>
			<path class="st20" d="M164.94,570.03c6.51-7.04,9.19-13.9,9.75-20.04c0.59-6.2-1.18-11.53-3.33-16.38
				c-2.19-4.81-5.4-8.54-7.73-11.44c-2.38-2.84-4.28-4.47-4.28-4.47s-7.36,7.71-10.53,18.36c-1.65,5.39-1.91,11.27,0.27,17.31
				C151.17,559.48,156.26,565.25,164.94,570.03z"/>
			
				<linearGradient id="SVGID_21_" gradientUnits="userSpaceOnUse" x1="176.2702" y1="217.8763" x2="176.2702" y2="735.7576" gradientTransform="matrix(0.9856 0.1689 -0.1689 0.9856 112.8553 -110.2197)">
				<stop  offset="0" style="stop-color:#926E3F"/>
				<stop  offset="0.5162" style="stop-color:#F6C582"/>
				<stop  offset="0.6151" style="stop-color:#E7B878"/>
				<stop  offset="0.8048" style="stop-color:#C0965E"/>
				<stop  offset="1" style="stop-color:#926E3F"/>
			</linearGradient>
			<path class="st21" d="M206.89,600.74c-6.26,11-13.87,16.9-22.1,19.23c-4.11,1.18-8.36,1.5-12.6,1.21
				c-4.19-0.36-8.27-1.46-12.19-2.85c-7.93-2.69-14.64-7.34-19.52-11c-2.44-1.83-4.38-3.49-5.64-4.76c-1.26-1.27-1.98-2-1.98-2
				s2.58-2.39,6.95-5.27c4.36-2.88,10.48-6.26,17.64-8.59c7.18-2.35,15-3.22,23.37-1.58c4.19,0.83,8.39,2.45,12.68,5.02
				C197.9,592.56,202.3,596.05,206.89,600.74z"/>
			
				<linearGradient id="SVGID_22_" gradientUnits="userSpaceOnUse" x1="201.5651" y1="217.8762" x2="201.5651" y2="735.755" gradientTransform="matrix(0.9856 0.1689 -0.1689 0.9856 112.8553 -110.2197)">
				<stop  offset="0" style="stop-color:#926E3F"/>
				<stop  offset="0.5162" style="stop-color:#F6C582"/>
				<stop  offset="0.6151" style="stop-color:#E7B878"/>
				<stop  offset="0.8048" style="stop-color:#C0965E"/>
				<stop  offset="1" style="stop-color:#926E3F"/>
			</linearGradient>
			<path class="st22" d="M206.85,600.81c5.37-7.92,6.97-15.06,6.62-21.27c-0.33-6.24-2.87-11.27-5.77-15.69
				c-2.9-4.42-6.55-7.73-9.38-10.14c-2.77-2.47-4.89-3.8-4.89-3.8s-6.11,8.74-7.66,19.76C184.29,580.42,187.99,594.06,206.85,600.81
				z"/>
			
				<linearGradient id="SVGID_23_" gradientUnits="userSpaceOnUse" x1="227.0745" y1="217.8796" x2="227.0745" y2="735.7558" gradientTransform="matrix(0.9856 0.1689 -0.1689 0.9856 112.8553 -110.2197)">
				<stop  offset="0" style="stop-color:#926E3F"/>
				<stop  offset="0.5162" style="stop-color:#F6C582"/>
				<stop  offset="0.6151" style="stop-color:#E7B878"/>
				<stop  offset="0.8048" style="stop-color:#C0965E"/>
				<stop  offset="1" style="stop-color:#926E3F"/>
			</linearGradient>
			<path class="st23" d="M252.94,624.87c-4.52,11.76-11.25,18.9-19.01,22.37c-7.75,3.52-16.66,3.84-24.74,2.07
				c-4.06-0.85-8.04-1.96-11.56-3.41c-3.51-1.48-6.69-3.07-9.37-4.55c-2.67-1.48-4.85-2.8-6.31-3.82c-1.43-1.07-2.25-1.69-2.25-1.69
				s2.19-2.74,6.07-6.25c3.85-3.47,9.49-7.88,16.17-11.18c6.73-3.37,14.32-5.38,22.87-5.06
				C233.28,613.91,242.47,617.06,252.94,624.87z"/>
			
				<linearGradient id="SVGID_24_" gradientUnits="userSpaceOnUse" x1="247.8093" y1="217.873" x2="247.8093" y2="735.7578" gradientTransform="matrix(0.9856 0.1689 -0.1689 0.9856 112.8553 -110.2197)">
				<stop  offset="0" style="stop-color:#926E3F"/>
				<stop  offset="0.5162" style="stop-color:#F6C582"/>
				<stop  offset="0.6151" style="stop-color:#E7B878"/>
				<stop  offset="0.8048" style="stop-color:#C0965E"/>
				<stop  offset="1" style="stop-color:#926E3F"/>
			</linearGradient>
			<path class="st24" d="M252.92,624.95c8.11-17.25,2.44-29.11-4.71-36.6c-3.53-3.94-7.58-6.78-10.79-8.66
				c-3.14-1.99-5.4-3.03-5.4-3.03s-4.75,9.58-4.62,20.69c0.13,5.46,1.54,11.29,5.41,16.45c1.9,2.64,4.53,4.85,7.85,6.76
				C244.02,622.41,247.98,624.17,252.92,624.95z"/>
			
				<linearGradient id="SVGID_25_" gradientUnits="userSpaceOnUse" x1="280.491" y1="217.8783" x2="280.491" y2="735.7574" gradientTransform="matrix(0.9856 0.1689 -0.1689 0.9856 112.8553 -110.2197)">
				<stop  offset="0" style="stop-color:#926E3F"/>
				<stop  offset="0.5162" style="stop-color:#F6C582"/>
				<stop  offset="0.6151" style="stop-color:#E7B878"/>
				<stop  offset="0.8048" style="stop-color:#C0965E"/>
				<stop  offset="1" style="stop-color:#926E3F"/>
			</linearGradient>
			<path class="st25" d="M302.07,641.88c-2.71,12.27-8.32,20.39-15.48,25c-3.57,2.31-7.53,3.83-11.65,4.76
				c-2.06,0.46-4.16,0.78-6.27,0.97c-2.08,0.11-4.17,0.1-6.24-0.02c-4.14-0.23-8.2-0.85-11.94-1.65c-3.71-0.88-7.07-2.06-9.93-3.12
				c-2.85-1.07-5.19-2.1-6.8-2.85c-1.62-0.73-2.5-1.27-2.5-1.27s1.74-3.01,5.08-7.11c3.33-4.1,8.23-9.24,14.33-13.48
				c6.11-4.23,13.38-7.53,21.86-8.41C280.98,634.01,290.55,635.76,302.07,641.88z"/>
			
				<linearGradient id="SVGID_26_" gradientUnits="userSpaceOnUse" x1="296.0877" y1="217.8754" x2="296.0877" y2="735.7598" gradientTransform="matrix(0.9856 0.1689 -0.1689 0.9856 112.8553 -110.2197)">
				<stop  offset="0" style="stop-color:#926E3F"/>
				<stop  offset="0.5162" style="stop-color:#F6C582"/>
				<stop  offset="0.6151" style="stop-color:#E7B878"/>
				<stop  offset="0.8048" style="stop-color:#C0965E"/>
				<stop  offset="1" style="stop-color:#926E3F"/>
			</linearGradient>
			<path class="st26" d="M302.06,641.96c2.81-9.19,2.21-16.42,0.03-22.15c-2.17-5.85-5.99-10.18-10.14-13.33
				c-4.1-3.29-8.5-5.61-11.94-6.99c-1.73-0.66-3.18-1.21-4.2-1.6c-1.03-0.34-1.62-0.54-1.62-0.54s-0.8,2.55-1.4,6.47
				c-0.6,3.91-1.01,9.26-0.06,14.62c0.93,5.39,3.19,10.98,7.77,15.53c2.29,2.24,5.23,4.04,8.79,5.48
				C292.85,640.89,297.06,641.93,302.06,641.96z"/>
			
				<linearGradient id="SVGID_27_" gradientUnits="userSpaceOnUse" x1="335.4922" y1="217.8808" x2="335.4922" y2="735.757" gradientTransform="matrix(0.9856 0.1689 -0.1689 0.9856 112.8553 -110.2197)">
				<stop  offset="0" style="stop-color:#926E3F"/>
				<stop  offset="0.5162" style="stop-color:#F6C582"/>
				<stop  offset="0.6151" style="stop-color:#E7B878"/>
				<stop  offset="0.8048" style="stop-color:#C0965E"/>
				<stop  offset="1" style="stop-color:#926E3F"/>
			</linearGradient>
			<path class="st27" d="M353.18,651.39c-0.85,12.58-5.16,21.28-11.58,27.09c-6.35,5.54-14.78,8.46-23.04,9.24
				c-8.25,0.73-16.42-0.03-22.34-1.47c-5.96-1.31-9.81-2.71-9.81-2.71s1.29-3.28,3.98-7.82c2.68-4.54,6.75-10.34,12.16-15.42
				c2.7-2.55,5.73-4.88,9.11-6.87c3.4-2.06,7.14-3.72,11.25-4.71c2.06-0.5,4.21-0.82,6.46-0.95c2.27-0.23,4.65-0.28,7.15-0.09
				C341.53,648.06,346.99,649.37,353.18,651.39z"/>
			
				<linearGradient id="SVGID_28_" gradientUnits="userSpaceOnUse" x1="345.3118" y1="217.8794" x2="345.3118" y2="735.7581" gradientTransform="matrix(0.9856 0.1689 -0.1689 0.9856 112.8553 -110.2197)">
				<stop  offset="0" style="stop-color:#926E3F"/>
				<stop  offset="0.5162" style="stop-color:#F6C582"/>
				<stop  offset="0.6151" style="stop-color:#E7B878"/>
				<stop  offset="0.8048" style="stop-color:#C0965E"/>
				<stop  offset="1" style="stop-color:#926E3F"/>
			</linearGradient>
			<path class="st28" d="M353.19,651.47c1.4-9.49-0.26-16.61-3.28-21.9c-3.03-5.35-7.43-9.19-12-11.69
				c-4.58-2.47-9.23-4.29-12.85-5.12c-1.8-0.45-3.33-0.72-4.4-0.88c-1.07-0.19-1.68-0.3-1.68-0.3s-1.73,10.63,1.71,21.01
				c1.73,5.19,4.78,10.47,9.99,14.23c2.62,1.79,5.77,3.22,9.5,4.12C343.9,651.91,348.24,652.12,353.19,651.47z"/>
			
				<linearGradient id="SVGID_29_" gradientUnits="userSpaceOnUse" x1="21.8074" y1="217.8753" x2="21.8074" y2="735.7547" gradientTransform="matrix(0.9856 0.1689 -0.1689 0.9856 112.8553 -110.2197)">
				<stop  offset="0" style="stop-color:#926E3F"/>
				<stop  offset="0.5162" style="stop-color:#F6C582"/>
				<stop  offset="0.6151" style="stop-color:#E7B878"/>
				<stop  offset="0.8048" style="stop-color:#C0965E"/>
				<stop  offset="1" style="stop-color:#926E3F"/>
			</linearGradient>
			<path class="st29" d="M79.23,154.81c-4.36-9.97-4.1-18.54-1.78-25.63c2.68-6.91,7.19-12.48,12.61-16.2
				c5.36-3.77,10.86-6.19,15.24-7.45c4.38-1.26,7.36-1.6,7.36-1.6s0.32,3,0.19,7.41c-0.1,4.43-0.36,10.42-2,16.26
				c-1.63,5.86-4.06,11.94-9.12,16.67C97.08,149.24,89.73,152.89,79.23,154.81z"/>
		</g>
		<g>
			
				<linearGradient id="SVGID_30_" gradientUnits="userSpaceOnUse" x1="885.5715" y1="96.4949" x2="885.5715" y2="614.3776" gradientTransform="matrix(-0.9856 0.1689 0.1689 0.9856 1405.7491 -110.2197)">
				<stop  offset="0" style="stop-color:#926E3F"/>
				<stop  offset="0.5162" style="stop-color:#F6C582"/>
				<stop  offset="0.6151" style="stop-color:#E7B878"/>
				<stop  offset="0.8048" style="stop-color:#C0965E"/>
				<stop  offset="1" style="stop-color:#926E3F"/>
			</linearGradient>
			<path class="st30" d="M467.26,651.23c22.82-3.91,45.5-10.12,67.62-18.51c25.91-10.07,50.82-23.28,74.05-39.27
				c22.85-16.01,43.88-34.78,62.52-55.82c18.15-20.67,34.05-43.95,47.26-69.21c12.84-24.42,22.78-50.81,29.54-78.44
				c6.83-27.83,10.19-55.82,9.99-83.2c-0.11-28.87-3.56-56.85-10.25-83.17c-7-28.01-17.01-54.37-29.75-78.35l-3.58,1.9
				c12.58,23.69,22.47,49.75,29.39,77.44c6.61,26.01,10.02,53.67,10.13,82.21c0.2,27.05-3.12,54.71-9.87,82.21
				c-6.68,27.31-16.51,53.39-29.19,77.52c-13.07,24.97-28.78,47.99-46.71,68.41c-18.43,20.79-39.22,39.36-61.79,55.17
				c-22.96,15.81-47.59,28.87-73.19,38.82c-26.22,9.95-53.24,16.81-80.32,20.34l0.53,4.03
				C458.18,652.69,462.72,652.01,467.26,651.23z"/>
			
				<linearGradient id="SVGID_31_" gradientUnits="userSpaceOnUse" x1="697.018" y1="96.4948" x2="697.018" y2="614.3745" gradientTransform="matrix(-0.9856 0.1689 0.1689 0.9856 1405.7491 -110.2197)">
				<stop  offset="0" style="stop-color:#926E3F"/>
				<stop  offset="0.5162" style="stop-color:#F6C582"/>
				<stop  offset="0.6151" style="stop-color:#E7B878"/>
				<stop  offset="0.8048" style="stop-color:#C0965E"/>
				<stop  offset="1" style="stop-color:#926E3F"/>
			</linearGradient>
			<path class="st31" d="M735.59,191.44c12.06-3.73,19.48-9.91,23.66-17.49c4.12-7.53,4.7-16.26,3.77-24.56
				c-1.29-8.14-3.81-15.96-6.59-21.39c-2.68-5.48-4.94-8.9-4.94-8.9s-2.89,2.01-6.68,5.66c-3.79,3.65-8.49,8.94-12.17,15.35
				c-3.58,6.37-6.62,14.06-6.59,22.48c0.09,4.18,0.52,8.75,2.09,13.5c0.75,2.39,1.83,4.82,3.05,7.37
				C732.37,186.03,733.82,188.68,735.59,191.44z"/>
			
				<linearGradient id="SVGID_32_" gradientUnits="userSpaceOnUse" x1="732.3411" y1="96.4958" x2="732.3411" y2="614.3717" gradientTransform="matrix(-0.9856 0.1689 0.1689 0.9856 1405.7491 -110.2197)">
				<stop  offset="0" style="stop-color:#926E3F"/>
				<stop  offset="0.5162" style="stop-color:#F6C582"/>
				<stop  offset="0.6151" style="stop-color:#E7B878"/>
				<stop  offset="0.8048" style="stop-color:#C0965E"/>
				<stop  offset="1" style="stop-color:#926E3F"/>
			</linearGradient>
			<path class="st32" d="M735.67,191.42c-17.91,6.99-28.97,0.39-36.24-7.14c-3.45-3.89-6.21-8.04-7.92-11.34
				c-1.73-3.29-2.52-5.67-2.52-5.67s9.83-4.07,20.81-3.14c5.42,0.5,11.44,2.17,16.12,6.46
				C730.63,174.84,734.63,181.48,735.67,191.42z"/>
			
				<linearGradient id="SVGID_33_" gradientUnits="userSpaceOnUse" x1="687.4385" y1="96.4946" x2="687.4385" y2="614.3757" gradientTransform="matrix(-0.9856 0.1689 0.1689 0.9856 1405.7491 -110.2197)">
				<stop  offset="0" style="stop-color:#926E3F"/>
				<stop  offset="0.5162" style="stop-color:#F6C582"/>
				<stop  offset="0.6151" style="stop-color:#E7B878"/>
				<stop  offset="0.8048" style="stop-color:#C0965E"/>
				<stop  offset="1" style="stop-color:#926E3F"/>
			</linearGradient>
			<path class="st33" d="M749.31,241.58c12.48-1.89,20.72-6.89,25.96-13.76c5.39-6.88,7.01-15.37,7.4-23.74
				c0.07-8.28-1.55-16.31-3.28-22.15c-1.86-5.81-3.62-9.52-3.62-9.52s-3.16,1.55-7.44,4.6c-4.29,3.04-9.71,7.56-14.28,13.35
				c-4.58,5.8-8.69,12.94-9.86,21.25C742.72,220.06,744.05,229.65,749.31,241.58z"/>
			
				<linearGradient id="SVGID_34_" gradientUnits="userSpaceOnUse" x1="724.317" y1="96.4962" x2="724.317" y2="614.3722" gradientTransform="matrix(-0.9856 0.1689 0.1689 0.9856 1405.7491 -110.2197)">
				<stop  offset="0" style="stop-color:#926E3F"/>
				<stop  offset="0.5162" style="stop-color:#F6C582"/>
				<stop  offset="0.6151" style="stop-color:#E7B878"/>
				<stop  offset="0.8048" style="stop-color:#C0965E"/>
				<stop  offset="1" style="stop-color:#926E3F"/>
			</linearGradient>
			<path class="st34" d="M749.39,241.58c-9.34,2.18-16.6,1.12-22.18-1.45c-2.81-1.29-5.13-2.98-7.21-4.86
				c-2.13-1.88-3.92-3.98-5.4-6.14c-1.49-2.16-2.68-4.39-3.63-6.53c-1.07-2.1-1.89-4.11-2.51-5.86c-1.24-3.5-1.69-5.97-1.69-5.97
				s10.34-2.56,21.08-0.02c5.36,1.28,10.96,3.86,14.95,8.8c2.04,2.45,3.77,5.46,5.02,9.1C748.98,232.3,749.49,236.63,749.39,241.58z
				"/>
			
				<linearGradient id="SVGID_35_" gradientUnits="userSpaceOnUse" x1="685.7546" y1="96.4936" x2="685.7546" y2="614.3775" gradientTransform="matrix(-0.9856 0.1689 0.1689 0.9856 1405.7491 -110.2197)">
				<stop  offset="0" style="stop-color:#926E3F"/>
				<stop  offset="0.5162" style="stop-color:#F6C582"/>
				<stop  offset="0.6151" style="stop-color:#E7B878"/>
				<stop  offset="0.8048" style="stop-color:#C0965E"/>
				<stop  offset="1" style="stop-color:#926E3F"/>
			</linearGradient>
			<path class="st35" d="M755.38,293.22c12.63,0,21.51-3.7,27.68-9.72c6.31-5.99,9.34-14.16,10.85-22.37
				c1.5-8.21,0.79-16.34,0.12-22.41c-0.96-6.02-2.19-9.95-2.19-9.95s-3.35,1.06-8.04,3.44c-4.69,2.37-10.69,6.03-16.08,11.07
				c-5.55,5.08-10.49,11.49-12.93,19.54c-1.38,4.05-2.13,8.52-2.01,13.52C752.96,281.35,753.48,286.92,755.38,293.22z"/>
			
				<linearGradient id="SVGID_36_" gradientUnits="userSpaceOnUse" x1="723.3688" y1="96.4956" x2="723.3688" y2="614.3737" gradientTransform="matrix(-0.9856 0.1689 0.1689 0.9856 1405.7491 -110.2197)">
				<stop  offset="0" style="stop-color:#926E3F"/>
				<stop  offset="0.5162" style="stop-color:#F6C582"/>
				<stop  offset="0.6151" style="stop-color:#E7B878"/>
				<stop  offset="0.8048" style="stop-color:#C0965E"/>
				<stop  offset="1" style="stop-color:#926E3F"/>
			</linearGradient>
			<path class="st36" d="M755.46,293.22c-9.56,0.75-16.59-1.38-21.75-4.75c-5.13-3.39-8.39-8.05-10.81-12.76
				c-2.33-4.71-3.37-9.53-4.21-13.16c-0.73-3.64-0.82-6.14-0.82-6.14s10.61-1,20.89,3.12c2.56,1.03,5.14,2.39,7.47,4.18
				c2.26,1.8,4.31,4.02,5.98,6.75c1.64,2.73,3,5.96,3.61,9.75C756.36,284,756.3,288.34,755.46,293.22z"/>
			
				<linearGradient id="SVGID_37_" gradientUnits="userSpaceOnUse" x1="692.2499" y1="96.4937" x2="692.2499" y2="614.3757" gradientTransform="matrix(-0.9856 0.1689 0.1689 0.9856 1405.7491 -110.2197)">
				<stop  offset="0" style="stop-color:#926E3F"/>
				<stop  offset="0.5162" style="stop-color:#F6C582"/>
				<stop  offset="0.6151" style="stop-color:#E7B878"/>
				<stop  offset="0.8048" style="stop-color:#C0965E"/>
				<stop  offset="1" style="stop-color:#926E3F"/>
			</linearGradient>
			<path class="st37" d="M753.63,345.17c12.49,1.9,21.81-0.42,28.79-5.44c3.46-2.5,6.46-5.63,8.75-9.15
				c2.25-3.52,3.99-7.4,5.33-11.34c0.67-1.97,1.25-3.96,1.73-5.93c0.4-1.97,0.71-3.92,0.96-5.81c0.49-3.79,0.71-7.35,0.78-10.4
				c0.12-3.06-0.16-5.59-0.31-7.37c-0.21-1.77-0.33-2.79-0.33-2.79s-3.47,0.55-8.45,2.19c-5.03,1.64-11.36,4.35-17.61,8.54
				c-6.27,4.19-11.96,9.79-15.71,17.38c-1.95,3.8-3.35,8.11-3.95,13.07C752.9,333.07,752.7,338.67,753.63,345.17z"/>
			
				<linearGradient id="SVGID_38_" gradientUnits="userSpaceOnUse" x1="730.1187" y1="96.4954" x2="730.1187" y2="614.3749" gradientTransform="matrix(-0.9856 0.1689 0.1689 0.9856 1405.7491 -110.2197)">
				<stop  offset="0" style="stop-color:#926E3F"/>
				<stop  offset="0.5162" style="stop-color:#F6C582"/>
				<stop  offset="0.6151" style="stop-color:#E7B878"/>
				<stop  offset="0.8048" style="stop-color:#C0965E"/>
				<stop  offset="1" style="stop-color:#926E3F"/>
			</linearGradient>
			<path class="st38" d="M753.7,345.19c-9.56-0.7-16.2-3.87-20.81-7.98c-4.64-4.13-7.02-9.22-8.76-14.23
				c-1.69-5.01-1.86-9.92-2.17-13.64c-0.2-3.7,0.08-6.19,0.08-6.19s10.64,0.61,20.22,6.21c4.88,2.81,9.12,6.92,11.63,12.83
				C756.55,328.08,756.8,335.77,753.7,345.19z"/>
			
				<linearGradient id="SVGID_39_" gradientUnits="userSpaceOnUse" x1="706.8989" y1="96.4943" x2="706.8989" y2="614.3755" gradientTransform="matrix(-0.9856 0.1689 0.1689 0.9856 1405.7491 -110.2197)">
				<stop  offset="0" style="stop-color:#926E3F"/>
				<stop  offset="0.5162" style="stop-color:#F6C582"/>
				<stop  offset="0.6151" style="stop-color:#E7B878"/>
				<stop  offset="0.8048" style="stop-color:#C0965E"/>
				<stop  offset="1" style="stop-color:#926E3F"/>
			</linearGradient>
			<path class="st39" d="M744.04,396.27c12.06,3.76,21.62,2.87,29.27-1.04c3.81-1.94,7.19-4.6,10.05-7.72
				c2.74-3.14,5.04-6.71,6.96-10.41c4-7.38,5.64-15.37,6.76-21.37c0.56-3.01,0.79-5.54,0.85-7.33c0.06-1.79,0.09-2.81,0.09-2.81
				s-3.51,0.02-8.68,0.9c-5.18,0.87-11.91,2.59-18.73,5.78c-6.84,3.19-13.21,7.89-18.15,14.81c-2.49,3.46-4.51,7.51-5.85,12.33
				C745.08,384.18,744.11,389.7,744.04,396.27z"/>
			
				<linearGradient id="SVGID_40_" gradientUnits="userSpaceOnUse" x1="744.4564" y1="96.4961" x2="744.4564" y2="614.3729" gradientTransform="matrix(-0.9856 0.1689 0.1689 0.9856 1405.7491 -110.2197)">
				<stop  offset="0" style="stop-color:#926E3F"/>
				<stop  offset="0.5162" style="stop-color:#F6C582"/>
				<stop  offset="0.6151" style="stop-color:#E7B878"/>
				<stop  offset="0.8048" style="stop-color:#C0965E"/>
				<stop  offset="1" style="stop-color:#926E3F"/>
			</linearGradient>
			<path class="st40" d="M744.11,396.3c-9.35-2.13-15.44-6.27-19.38-11.02c-4.01-4.79-5.52-10.17-6.5-15.39
				c-0.9-5.2-0.42-10.11-0.08-13.8c0.35-3.69,0.99-6.11,0.99-6.11s10.43,2.2,19.08,9.19c4.4,3.51,7.9,8.21,9.55,14.43
				C749.52,379.82,748.54,387.44,744.11,396.3z"/>
			
				<linearGradient id="SVGID_41_" gradientUnits="userSpaceOnUse" x1="729.3958" y1="96.4941" x2="729.3958" y2="614.3763" gradientTransform="matrix(-0.9856 0.1689 0.1689 0.9856 1405.7491 -110.2197)">
				<stop  offset="0" style="stop-color:#926E3F"/>
				<stop  offset="0.5162" style="stop-color:#F6C582"/>
				<stop  offset="0.6151" style="stop-color:#E7B878"/>
				<stop  offset="0.8048" style="stop-color:#C0965E"/>
				<stop  offset="1" style="stop-color:#926E3F"/>
			</linearGradient>
			<path class="st41" d="M726.87,445.35c11.37,5.51,20.96,6.05,29.11,3.34c4.06-1.35,7.82-3.46,11.08-6.12
				c3.18-2.69,5.99-5.87,8.44-9.24c5.06-6.68,7.89-14.33,9.88-20.1c0.98-2.89,1.64-5.35,1.96-7.11c0.32-1.76,0.51-2.77,0.51-2.77
				s-3.48-0.51-8.71-0.42c-5.23,0.08-12.18,0.76-19.4,2.89c-7.25,2.12-14.24,5.81-20.16,11.91c-2.99,3.05-5.59,6.75-7.63,11.32
				C729.74,433.57,727.92,438.87,726.87,445.35z"/>
			
				<linearGradient id="SVGID_42_" gradientUnits="userSpaceOnUse" x1="765.9736" y1="96.4975" x2="765.9736" y2="614.3742" gradientTransform="matrix(-0.9856 0.1689 0.1689 0.9856 1405.7491 -110.2197)">
				<stop  offset="0" style="stop-color:#926E3F"/>
				<stop  offset="0.5162" style="stop-color:#F6C582"/>
				<stop  offset="0.6151" style="stop-color:#E7B878"/>
				<stop  offset="0.8048" style="stop-color:#C0965E"/>
				<stop  offset="1" style="stop-color:#926E3F"/>
			</linearGradient>
			<path class="st42" d="M726.93,445.4c-8.93-3.49-14.33-8.49-17.51-13.79c-3.23-5.33-3.94-10.9-4.12-16.21
				c-0.11-5.29,1.11-10.07,2.01-13.68c0.9-3.6,1.89-5.9,1.89-5.9s9.98,3.75,17.48,11.96c3.82,4.13,6.57,9.3,7.26,15.7
				C734.75,429.91,732.67,437.31,726.93,445.4z"/>
			
				<linearGradient id="SVGID_43_" gradientUnits="userSpaceOnUse" x1="759.1368" y1="96.4936" x2="759.1368" y2="614.3743" gradientTransform="matrix(-0.9856 0.1689 0.1689 0.9856 1405.7491 -110.2197)">
				<stop  offset="0" style="stop-color:#926E3F"/>
				<stop  offset="0.5162" style="stop-color:#F6C582"/>
				<stop  offset="0.6151" style="stop-color:#E7B878"/>
				<stop  offset="0.8048" style="stop-color:#C0965E"/>
				<stop  offset="1" style="stop-color:#926E3F"/>
			</linearGradient>
			<path class="st43" d="M702.62,491.36c10.42,7.14,19.83,9.1,28.32,7.63c8.59-1.38,15.74-6.37,21.58-12.31
				c1.46-1.48,2.85-3.02,4.14-4.58c1.21-1.6,2.34-3.21,3.39-4.81c2.09-3.19,3.83-6.29,5.22-9c1.43-2.69,2.36-5.06,2.96-6.74
				c0.58-1.69,0.91-2.65,0.91-2.65s-3.36-1.02-8.55-1.72c-5.22-0.71-12.11-1.05-19.59-0.03c-7.46,1.03-15.02,3.6-21.69,8.8
				c-3.42,2.57-6.55,5.84-9.26,10.04C707.3,480.18,704.62,485.1,702.62,491.36z"/>
			
				<linearGradient id="SVGID_44_" gradientUnits="userSpaceOnUse" x1="794.001" y1="96.4969" x2="794.001" y2="614.3754" gradientTransform="matrix(-0.9856 0.1689 0.1689 0.9856 1405.7491 -110.2197)">
				<stop  offset="0" style="stop-color:#926E3F"/>
				<stop  offset="0.5162" style="stop-color:#F6C582"/>
				<stop  offset="0.6151" style="stop-color:#E7B878"/>
				<stop  offset="0.8048" style="stop-color:#C0965E"/>
				<stop  offset="1" style="stop-color:#926E3F"/>
			</linearGradient>
			<path class="st44" d="M702.69,491.41c-8.31-4.78-12.91-10.52-15.26-16.22c-2.35-5.71-2.33-11.37-1.69-16.64
				c0.67-5.25,2.67-9.74,4-13.24c1.44-3.43,2.77-5.56,2.77-5.56s9.31,5.19,15.49,14.42c3.17,4.66,5.19,10.21,4.88,16.61
				c-0.2,3.18-0.84,6.64-2.54,10.08C708.63,484.3,706.13,487.85,702.69,491.41z"/>
			
				<linearGradient id="SVGID_45_" gradientUnits="userSpaceOnUse" x1="795.4293" y1="96.4933" x2="795.4293" y2="614.3755" gradientTransform="matrix(-0.9856 0.1689 0.1689 0.9856 1405.7491 -110.2197)">
				<stop  offset="0" style="stop-color:#926E3F"/>
				<stop  offset="0.5162" style="stop-color:#F6C582"/>
				<stop  offset="0.6151" style="stop-color:#E7B878"/>
				<stop  offset="0.8048" style="stop-color:#C0965E"/>
				<stop  offset="1" style="stop-color:#926E3F"/>
			</linearGradient>
			<path class="st45" d="M671.8,533.22c9.23,8.63,18.23,11.98,26.84,11.8c8.69-0.08,16.53-3.94,23.2-8.94
				c6.79-4.92,11.72-11.42,15.37-16.31c1.83-2.45,3.03-4.7,3.91-6.26c0.83-1.58,1.31-2.49,1.31-2.49s-3.17-1.51-8.21-2.97
				c-5.08-1.49-11.82-2.82-19.35-2.91c-7.54-0.09-15.42,1.3-22.77,5.46c-3.76,2.03-7.36,4.78-10.67,8.53
				C678.09,522.86,674.71,527.33,671.8,533.22z"/>
			
				<linearGradient id="SVGID_46_" gradientUnits="userSpaceOnUse" x1="827.8348" y1="96.4962" x2="827.8348" y2="614.376" gradientTransform="matrix(-0.9856 0.1689 0.1689 0.9856 1405.7491 -110.2197)">
				<stop  offset="0" style="stop-color:#926E3F"/>
				<stop  offset="0.5162" style="stop-color:#F6C582"/>
				<stop  offset="0.6151" style="stop-color:#E7B878"/>
				<stop  offset="0.8048" style="stop-color:#C0965E"/>
				<stop  offset="1" style="stop-color:#926E3F"/>
			</linearGradient>
			<path class="st46" d="M671.85,533.28c-7.5-5.98-11.18-12.35-12.65-18.33c-1.47-6-0.6-11.59,0.82-16.7
				c1.46-5.07,4.08-9.23,5.92-12.47c1.93-3.17,3.57-5.06,3.57-5.06s8.44,6.52,13.17,16.55c2.43,5.07,3.63,10.88,2.35,17.16
				c-0.67,3.11-1.83,6.44-4.03,9.58C678.79,527.14,675.79,530.27,671.85,533.28z"/>
			
				<linearGradient id="SVGID_47_" gradientUnits="userSpaceOnUse" x1="837.5552" y1="96.4924" x2="837.5552" y2="614.3611" gradientTransform="matrix(-0.9856 0.1689 0.1689 0.9856 1405.7491 -110.2197)">
				<stop  offset="0" style="stop-color:#926E3F"/>
				<stop  offset="0.5162" style="stop-color:#F6C582"/>
				<stop  offset="0.6151" style="stop-color:#E7B878"/>
				<stop  offset="0.8048" style="stop-color:#C0965E"/>
				<stop  offset="1" style="stop-color:#926E3F"/>
			</linearGradient>
			<path class="st47" d="M635.02,569.96c7.82,9.92,16.21,14.59,24.74,15.69c4.24,0.55,8.55,0.28,12.64-0.7
				c4.04-1.03,7.96-2.68,11.64-4.65c7.48-3.81,13.32-9.52,17.66-13.81c2.17-2.15,3.74-4.17,4.83-5.59c1.06-1.44,1.67-2.27,1.67-2.27
				s-2.91-1.97-7.67-4.17c-4.79-2.24-11.26-4.56-18.7-5.8c-7.44-1.23-15.4-1-23.34,1.96c-4.02,1.44-7.98,3.64-11.81,6.85
				C642.74,560.6,638.79,564.58,635.02,569.96z"/>
			
				<linearGradient id="SVGID_48_" gradientUnits="userSpaceOnUse" x1="866.7557" y1="96.498" x2="866.7557" y2="614.3736" gradientTransform="matrix(-0.9856 0.1689 0.1689 0.9856 1405.7491 -110.2197)">
				<stop  offset="0" style="stop-color:#926E3F"/>
				<stop  offset="0.5162" style="stop-color:#F6C582"/>
				<stop  offset="0.6151" style="stop-color:#E7B878"/>
				<stop  offset="0.8048" style="stop-color:#C0965E"/>
				<stop  offset="1" style="stop-color:#926E3F"/>
			</linearGradient>
			<path class="st48" d="M635.06,570.03c-6.51-7.04-9.19-13.9-9.75-20.04c-0.59-6.2,1.18-11.53,3.33-16.38
				c2.19-4.81,5.4-8.54,7.73-11.44c2.38-2.84,4.28-4.47,4.28-4.47s7.36,7.71,10.53,18.36c1.65,5.39,1.91,11.27-0.27,17.31
				C648.83,559.48,643.74,565.25,635.06,570.03z"/>
			
				<linearGradient id="SVGID_49_" gradientUnits="userSpaceOnUse" x1="884.5732" y1="96.4966" x2="884.5732" y2="614.3773" gradientTransform="matrix(-0.9856 0.1689 0.1689 0.9856 1405.7491 -110.2197)">
				<stop  offset="0" style="stop-color:#926E3F"/>
				<stop  offset="0.5162" style="stop-color:#F6C582"/>
				<stop  offset="0.6151" style="stop-color:#E7B878"/>
				<stop  offset="0.8048" style="stop-color:#C0965E"/>
				<stop  offset="1" style="stop-color:#926E3F"/>
			</linearGradient>
			<path class="st49" d="M593.11,600.74c6.26,11,13.87,16.9,22.1,19.23c4.11,1.18,8.36,1.5,12.6,1.21
				c4.19-0.36,8.27-1.46,12.19-2.85c7.93-2.69,14.64-7.34,19.52-11c2.44-1.83,4.38-3.49,5.64-4.76c1.26-1.27,1.98-2,1.98-2
				s-2.58-2.39-6.95-5.27c-4.36-2.88-10.48-6.26-17.64-8.59c-7.18-2.35-15-3.22-23.37-1.58c-4.19,0.83-8.39,2.45-12.68,5.02
				C602.1,592.56,597.7,596.05,593.11,600.74z"/>
			
				<linearGradient id="SVGID_50_" gradientUnits="userSpaceOnUse" x1="909.868" y1="96.496" x2="909.868" y2="614.3748" gradientTransform="matrix(-0.9856 0.1689 0.1689 0.9856 1405.7491 -110.2197)">
				<stop  offset="0" style="stop-color:#926E3F"/>
				<stop  offset="0.5162" style="stop-color:#F6C582"/>
				<stop  offset="0.6151" style="stop-color:#E7B878"/>
				<stop  offset="0.8048" style="stop-color:#C0965E"/>
				<stop  offset="1" style="stop-color:#926E3F"/>
			</linearGradient>
			<path class="st50" d="M593.15,600.81c-5.37-7.92-6.97-15.06-6.62-21.27c0.33-6.24,2.87-11.27,5.77-15.69
				c2.9-4.42,6.55-7.73,9.38-10.14c2.77-2.47,4.89-3.8,4.89-3.8s6.11,8.74,7.66,19.76C615.71,580.42,612.01,594.06,593.15,600.81z"
				/>
			
				<linearGradient id="SVGID_51_" gradientUnits="userSpaceOnUse" x1="935.3774" y1="96.4994" x2="935.3774" y2="614.3755" gradientTransform="matrix(-0.9856 0.1689 0.1689 0.9856 1405.7491 -110.2197)">
				<stop  offset="0" style="stop-color:#926E3F"/>
				<stop  offset="0.5162" style="stop-color:#F6C582"/>
				<stop  offset="0.6151" style="stop-color:#E7B878"/>
				<stop  offset="0.8048" style="stop-color:#C0965E"/>
				<stop  offset="1" style="stop-color:#926E3F"/>
			</linearGradient>
			<path class="st51" d="M547.06,624.87c4.52,11.76,11.25,18.9,19.01,22.37c7.75,3.52,16.66,3.84,24.74,2.07
				c4.06-0.85,8.04-1.96,11.56-3.41c3.51-1.48,6.69-3.07,9.37-4.55c2.67-1.48,4.85-2.8,6.31-3.82c1.43-1.07,2.25-1.69,2.25-1.69
				s-2.19-2.74-6.07-6.25c-3.85-3.47-9.49-7.88-16.17-11.18c-6.73-3.37-14.32-5.38-22.87-5.06
				C566.72,613.91,557.53,617.06,547.06,624.87z"/>
			
				<linearGradient id="SVGID_52_" gradientUnits="userSpaceOnUse" x1="956.1122" y1="96.4936" x2="956.1122" y2="614.3774" gradientTransform="matrix(-0.9856 0.1689 0.1689 0.9856 1405.7491 -110.2197)">
				<stop  offset="0" style="stop-color:#926E3F"/>
				<stop  offset="0.5162" style="stop-color:#F6C582"/>
				<stop  offset="0.6151" style="stop-color:#E7B878"/>
				<stop  offset="0.8048" style="stop-color:#C0965E"/>
				<stop  offset="1" style="stop-color:#926E3F"/>
			</linearGradient>
			<path class="st52" d="M547.08,624.95c-8.11-17.25-2.44-29.11,4.71-36.6c3.53-3.94,7.58-6.78,10.79-8.66
				c3.14-1.99,5.4-3.03,5.4-3.03s4.75,9.58,4.62,20.69c-0.13,5.46-1.54,11.29-5.41,16.45c-1.9,2.64-4.53,4.85-7.85,6.76
				C555.98,622.41,552.02,624.17,547.08,624.95z"/>
			
				<linearGradient id="SVGID_53_" gradientUnits="userSpaceOnUse" x1="988.7938" y1="96.4978" x2="988.7938" y2="614.3771" gradientTransform="matrix(-0.9856 0.1689 0.1689 0.9856 1405.7491 -110.2197)">
				<stop  offset="0" style="stop-color:#926E3F"/>
				<stop  offset="0.5162" style="stop-color:#F6C582"/>
				<stop  offset="0.6151" style="stop-color:#E7B878"/>
				<stop  offset="0.8048" style="stop-color:#C0965E"/>
				<stop  offset="1" style="stop-color:#926E3F"/>
			</linearGradient>
			<path class="st53" d="M497.93,641.88c2.71,12.27,8.32,20.39,15.48,25c3.57,2.31,7.53,3.83,11.65,4.76
				c2.06,0.46,4.16,0.78,6.27,0.97c2.08,0.11,4.17,0.1,6.24-0.02c4.14-0.23,8.2-0.85,11.94-1.65c3.71-0.88,7.07-2.06,9.93-3.12
				c2.85-1.07,5.19-2.1,6.8-2.85c1.62-0.73,2.5-1.27,2.5-1.27s-1.74-3.01-5.08-7.11c-3.33-4.1-8.23-9.24-14.34-13.48
				c-6.11-4.23-13.38-7.53-21.86-8.41C519.02,634.01,509.45,635.76,497.93,641.88z"/>
			
				<linearGradient id="SVGID_54_" gradientUnits="userSpaceOnUse" x1="1004.3905" y1="96.4952" x2="1004.3905" y2="614.3796" gradientTransform="matrix(-0.9856 0.1689 0.1689 0.9856 1405.7491 -110.2197)">
				<stop  offset="0" style="stop-color:#926E3F"/>
				<stop  offset="0.5162" style="stop-color:#F6C582"/>
				<stop  offset="0.6151" style="stop-color:#E7B878"/>
				<stop  offset="0.8048" style="stop-color:#C0965E"/>
				<stop  offset="1" style="stop-color:#926E3F"/>
			</linearGradient>
			<path class="st54" d="M497.94,641.96c-2.81-9.19-2.21-16.42-0.03-22.15c2.17-5.85,5.99-10.18,10.14-13.33
				c4.1-3.29,8.5-5.61,11.94-6.99c1.73-0.66,3.18-1.21,4.2-1.6c1.03-0.34,1.62-0.54,1.62-0.54s0.8,2.55,1.4,6.47
				c0.6,3.91,1.01,9.26,0.06,14.62c-0.93,5.39-3.19,10.98-7.77,15.53c-2.3,2.24-5.23,4.04-8.79,5.48
				C507.15,640.89,502.94,641.93,497.94,641.96z"/>
			
				<linearGradient id="SVGID_55_" gradientUnits="userSpaceOnUse" x1="1043.795" y1="96.5009" x2="1043.795" y2="614.3767" gradientTransform="matrix(-0.9856 0.1689 0.1689 0.9856 1405.7491 -110.2197)">
				<stop  offset="0" style="stop-color:#926E3F"/>
				<stop  offset="0.5162" style="stop-color:#F6C582"/>
				<stop  offset="0.6151" style="stop-color:#E7B878"/>
				<stop  offset="0.8048" style="stop-color:#C0965E"/>
				<stop  offset="1" style="stop-color:#926E3F"/>
			</linearGradient>
			<path class="st55" d="M446.82,651.39c0.85,12.58,5.16,21.28,11.58,27.09c6.35,5.54,14.78,8.46,23.04,9.24
				c8.25,0.73,16.42-0.03,22.34-1.47c5.96-1.31,9.81-2.71,9.81-2.71s-1.29-3.28-3.98-7.82c-2.68-4.54-6.75-10.34-12.16-15.42
				c-2.7-2.55-5.73-4.88-9.11-6.87c-3.4-2.06-7.14-3.72-11.25-4.71c-2.06-0.5-4.21-0.82-6.46-0.95c-2.27-0.23-4.65-0.28-7.15-0.09
				C458.47,648.06,453.01,649.37,446.82,651.39z"/>
			
				<linearGradient id="SVGID_56_" gradientUnits="userSpaceOnUse" x1="1053.6146" y1="96.499" x2="1053.6146" y2="614.3779" gradientTransform="matrix(-0.9856 0.1689 0.1689 0.9856 1405.7491 -110.2197)">
				<stop  offset="0" style="stop-color:#926E3F"/>
				<stop  offset="0.5162" style="stop-color:#F6C582"/>
				<stop  offset="0.6151" style="stop-color:#E7B878"/>
				<stop  offset="0.8048" style="stop-color:#C0965E"/>
				<stop  offset="1" style="stop-color:#926E3F"/>
			</linearGradient>
			<path class="st56" d="M446.81,651.47c-1.4-9.49,0.26-16.61,3.28-21.9c3.03-5.35,7.43-9.19,12-11.69
				c4.58-2.47,9.23-4.29,12.85-5.12c1.8-0.45,3.33-0.72,4.4-0.88c1.07-0.19,1.68-0.3,1.68-0.3s1.73,10.63-1.71,21.01
				c-1.73,5.19-4.78,10.47-9.99,14.23c-2.62,1.79-5.77,3.22-9.5,4.12C456.1,651.91,451.76,652.12,446.81,651.47z"/>
			
				<linearGradient id="SVGID_57_" gradientUnits="userSpaceOnUse" x1="730.1103" y1="96.495" x2="730.1103" y2="614.3745" gradientTransform="matrix(-0.9856 0.1689 0.1689 0.9856 1405.7491 -110.2197)">
				<stop  offset="0" style="stop-color:#926E3F"/>
				<stop  offset="0.5162" style="stop-color:#F6C582"/>
				<stop  offset="0.6151" style="stop-color:#E7B878"/>
				<stop  offset="0.8048" style="stop-color:#C0965E"/>
				<stop  offset="1" style="stop-color:#926E3F"/>
			</linearGradient>
			<path class="st57" d="M720.77,154.81c4.36-9.97,4.1-18.54,1.78-25.63c-2.68-6.91-7.19-12.48-12.61-16.2
				c-5.36-3.77-10.86-6.19-15.24-7.45c-4.38-1.26-7.36-1.6-7.36-1.6s-0.32,3-0.19,7.41c0.1,4.43,0.36,10.42,2,16.26
				c1.63,5.86,4.06,11.94,9.12,16.67C702.92,149.24,710.27,152.89,720.77,154.81z"/>
		</g>
	</g>
</g>
</svg>
